<?xml version="1.0" encoding="UTF-8"?> <svg xmlns="http://www.w3.org/2000/svg" width="1121" height="1121" viewBox="0 0 1121 1121" fill="none"> <path d="M934.167 0H186.833C83.6481 0 0 83.6481 0 186.833V934.167C0 1037.35 83.6481 1121 186.833 1121H934.167C1037.35 1121 1121 1037.35 1121 934.167V186.833C1121 83.6481 1037.35 0 934.167 0Z" fill="#5181B8"></path> <path fill-rule="evenodd" clip-rule="evenodd" d="M786.193 456.959C789.469 446.032 786.193 438 770.61 438H719.082C705.98 438 699.944 444.937 696.668 452.589C696.668 452.589 670.462 516.522 633.34 558.05C621.331 570.072 615.872 573.892 609.321 573.892C606.045 573.892 601.305 570.072 601.305 559.144V456.959C601.305 443.843 597.503 438 586.583 438H505.611C497.425 438 492.501 444.086 492.501 449.856C492.501 462.29 511.058 465.156 512.972 500.127V576.084C512.972 592.737 509.968 595.758 503.417 595.758C485.949 595.758 443.461 531.535 418.257 458.053C413.317 443.769 408.363 438 395.194 438H343.667C328.944 438 326 444.937 326 452.589C326 466.251 343.472 534.011 407.34 623.625C449.924 684.82 509.91 718 564.499 718C597.256 718 601.305 710.632 601.305 697.939V651.684C601.305 636.947 604.408 634.007 614.776 634.007C622.424 634.007 635.523 637.832 666.097 667.338C701.033 702.305 706.789 718 726.443 718H777.971C792.693 718 800.054 710.632 795.807 696.09C791.162 681.596 774.482 660.574 752.347 635.647C740.338 621.437 722.321 606.136 716.867 598.488C709.222 588.651 711.405 584.282 716.867 575.543C716.867 575.543 779.642 487.018 786.193 456.963V456.959Z" fill="white"></path> </svg> 